  0
SECTION
  2
HEADER
  9
$ACADVER
  1
AC1009
  9
$FILLMODE
 70
1
  9
$EXTMIN
 10
-0.1016
 20
-0.1016
 30
0.0000
  9
$EXTMAX
 10
62.1054
 20
71.9679
 30
0.0000
  0
ENDSEC
  0
SECTION
  2
TABLES
  0
TABLE
  2
LTYPE
 70
1
  0
LTYPE
  2
CONTINUOUS
 70
64
  3
Solid line
 72
65
 73
0
 40
0
  0
ENDTAB
  0
TABLE
  2
LAYER
 70
255
  0
LAYER
  2
31
 70
64
 62
253
  6
CONTINUOUS
  0
ENDTAB
  0
ENDSEC
  0
SECTION
  2
BLOCKS
  0
BLOCK
  8
0
  2
RECT
 70
64
 10
0.0000
 20
0.0000
 30
0.0000
  3
RECT
  0
SOLID
  8
0
 10
-0.5000
 20
-0.5000
 30
0.0000
 11
0.5000
 21
-0.5000
 31
0.0000
 12
-0.5000
 22
0.5000
 32
0.0000
 13
0.5000
 23
0.5000
 33
0.0000
  0
ENDBLK
  8
0
  0
BLOCK
  8
0
  2
PIE
 70
64
 10
0.0000
 20
0.0000
 30
0.0000
  3
PIE
  0
POLYLINE
  8
0
 66
1
 10
0.0000
 20
0.0000
 30
0.0000
 40
0.5000
 41
0.5000
 70
0
  0
VERTEX
  8
0
 10
0.0000
 20
-0.2500
 30
0.0000
 42
1.0000
  0
VERTEX
  8
0
 10
0.0000
 20
0.2500
 30
0.0000
 42
1.0000
  0
VERTEX
  8
0
 10
0.0000
 20
-0.2500
 30
0.0000
  0
SEQEND
  8
0
  0
ENDBLK
  8
0
  0
BLOCK
  8
0
  2
OCTAGONP
 70
64
 10
0.0000
 20
0.0000
 30
0.0000
  3
OCTAGONP
  0
POLYLINE
  8
0
 66
1
 10
0.0000
 20
0.0000
 30
0.0000
 40
0.5000
 41
0.5000
 70
0
  0
VERTEX
  8
0
 10
-0.2500
 20
-0.1036
 30
0.0000
  0
VERTEX
  8
0
 10
-0.2500
 20
0.1036
 30
0.0000
  0
VERTEX
  8
0
 10
-0.1036
 20
0.2500
 30
0.0000
  0
VERTEX
  8
0
 10
0.1036
 20
0.2500
 30
0.0000
  0
VERTEX
  8
0
 10
0.2500
 20
0.1036
 30
0.0000
  0
VERTEX
  8
0
 10
0.2500
 20
-0.1036
 30
0.0000
  0
VERTEX
  8
0
 10
0.1036
 20
-0.2500
 30
0.0000
  0
VERTEX
  8
0
 10
-0.1036
 20
-0.2500
 30
0.0000
  0
VERTEX
  8
0
 10
-0.2500
 20
-0.1036
 30
0.0000
  0
VERTEX
  8
0
 10
-0.2500
 20
0.1036
 30
0.0000
  0
SEQEND
  8
0
  0
ENDBLK
  8
0
  0
BLOCK
  8
0
  2
SQUAREP
 70
64
 10
0.0000
 20
0.0000
 30
0.0000
  3
SQUAREP
  0
SOLID
  8
0
 10
-0.5000
 20
-0.5000
 30
0.0000
 11
0.5000
 21
-0.5000
 31
0.0000
 12
-0.5000
 22
0.5000
 32
0.0000
 13
0.5000
 23
0.5000
 33
0.0000
  0
ENDBLK
  8
0
  0
BLOCK
  8
0
  2
ROUNDP
 70
64
 10
0.0000
 20
0.0000
 30
0.0000
  3
ROUNDP
  0
POLYLINE
  8
0
 66
1
 10
0.0000
 20
0.0000
 30
0.0000
 40
0.5000
 41
0.5000
 70
0
  0
VERTEX
  8
0
 10
0.0000
 20
-0.2500
 30
0.0000
 42
1.0000
  0
VERTEX
  8
0
 10
0.0000
 20
0.2500
 30
0.0000
 42
1.0000
  0
VERTEX
  8
0
 10
0.0000
 20
-0.2500
 30
0.0000
  0
SEQEND
  8
0
  0
ENDBLK
  8
0
  0
BLOCK
  8
0
  2
ANNULUSP
 70
64
 10
0.0000
 20
0.0000
 30
0.0000
  3
ANNULUSP
  0
POLYLINE
  8
0
 66
1
 10
0.0000
 20
0.0000
 30
0.0000
 40
0.5000
 41
0.5000
 70
0
  0
VERTEX
  8
0
 10
0.0000
 20
-0.2500
 30
0.0000
 42
1.0000
  0
VERTEX
  8
0
 10
0.0000
 20
0.2500
 30
0.0000
 42
1.0000
  0
VERTEX
  8
0
 10
0.0000
 20
-0.2500
 30
0.0000
  0
SEQEND
  8
0
  0
ENDBLK
  8
0
  0
BLOCK
  8
0
  2
THERMALP
 70
64
 10
0.0000
 20
0.0000
 30
0.0000
  3
THERMALP
  0
POLYLINE
  8
0
 66
1
 10
0.0000
 20
0.0000
 30
0.0000
 40
0.1000
 41
0.1000
 70
0
  0
VERTEX
  8
0
 10
-0.2379
 20
0.4500
 30
0.0000
  0
VERTEX
  8
0
 10
0.2379
 20
0.4500
 30
0.0000
  0
SEQEND
  8
0
  0
POLYLINE
  8
0
 66
1
 10
0.0000
 20
0.0000
 30
0.0000
 40
0.0500
 41
0.0500
 70
0
  0
VERTEX
  8
0
 10
0.2379
 20
0.4250
 30
0.0000
 42
1.0000
  0
VERTEX
  8
0
 10
0.2379
 20
0.4750
 30
0.0000
  0
SEQEND
  8
0
  0
POLYLINE
  8
0
 66
1
 10
0.0000
 20
0.0000
 30
0.0000
 40
0.0500
 41
0.0500
 70
0
  0
VERTEX
  8
0
 10
-0.2379
 20
0.4750
 30
0.0000
 42
1.0000
  0
VERTEX
  8
0
 10
-0.2379
 20
0.4250
 30
0.0000
  0
SEQEND
  8
0
  0
POLYLINE
  8
0
 66
1
 10
0.0000
 20
0.0000
 30
0.0000
 40
0.1000
 41
0.1000
 70
0
  0
VERTEX
  8
0
 10
0.4500
 20
0.2379
 30
0.0000
  0
VERTEX
  8
0
 10
0.4500
 20
-0.2379
 30
0.0000
  0
SEQEND
  8
0
  0
POLYLINE
  8
0
 66
1
 10
0.0000
 20
0.0000
 30
0.0000
 40
0.0500
 41
0.0500
 70
0
  0
VERTEX
  8
0
 10
0.4250
 20
-0.2379
 30
0.0000
 42
1.0000
  0
VERTEX
  8
0
 10
0.4750
 20
-0.2379
 30
0.0000
  0
SEQEND
  8
0
  0
POLYLINE
  8
0
 66
1
 10
0.0000
 20
0.0000
 30
0.0000
 40
0.0500
 41
0.0500
 70
0
  0
VERTEX
  8
0
 10
0.4750
 20
0.2379
 30
0.0000
 42
1.0000
  0
VERTEX
  8
0
 10
0.4250
 20
0.2379
 30
0.0000
  0
SEQEND
  8
0
  0
POLYLINE
  8
0
 66
1
 10
0.0000
 20
0.0000
 30
0.0000
 40
0.1000
 41
0.1000
 70
0
  0
VERTEX
  8
0
 10
0.2379
 20
-0.4500
 30
0.0000
  0
VERTEX
  8
0
 10
-0.2379
 20
-0.4500
 30
0.0000
  0
SEQEND
  8
0
  0
POLYLINE
  8
0
 66
1
 10
0.0000
 20
0.0000
 30
0.0000
 40
0.0500
 41
0.0500
 70
0
  0
VERTEX
  8
0
 10
-0.2379
 20
-0.4250
 30
0.0000
 42
1.0000
  0
VERTEX
  8
0
 10
-0.2379
 20
-0.4750
 30
0.0000
  0
SEQEND
  8
0
  0
POLYLINE
  8
0
 66
1
 10
0.0000
 20
0.0000
 30
0.0000
 40
0.0500
 41
0.0500
 70
0
  0
VERTEX
  8
0
 10
0.2379
 20
-0.4750
 30
0.0000
 42
1.0000
  0
VERTEX
  8
0
 10
0.2379
 20
-0.4250
 30
0.0000
  0
SEQEND
  8
0
  0
POLYLINE
  8
0
 66
1
 10
0.0000
 20
0.0000
 30
0.0000
 40
0.1000
 41
0.1000
 70
0
  0
VERTEX
  8
0
 10
-0.4500
 20
-0.2379
 30
0.0000
  0
VERTEX
  8
0
 10
-0.4500
 20
0.2379
 30
0.0000
  0
SEQEND
  8
0
  0
POLYLINE
  8
0
 66
1
 10
0.0000
 20
0.0000
 30
0.0000
 40
0.0500
 41
0.0500
 70
0
  0
VERTEX
  8
0
 10
-0.4250
 20
0.2379
 30
0.0000
 42
1.0000
  0
VERTEX
  8
0
 10
-0.4750
 20
0.2379
 30
0.0000
  0
SEQEND
  8
0
  0
POLYLINE
  8
0
 66
1
 10
0.0000
 20
0.0000
 30
0.0000
 40
0.0500
 41
0.0500
 70
0
  0
VERTEX
  8
0
 10
-0.4750
 20
-0.2379
 30
0.0000
 42
1.0000
  0
VERTEX
  8
0
 10
-0.4250
 20
-0.2379
 30
0.0000
  0
SEQEND
  8
0
  0
ENDBLK
  8
0
  0
BLOCK
  8
0
  2
OCTAGONV
 70
64
 10
0.0000
 20
0.0000
 30
0.0000
  3
OCTAGONV
  0
POLYLINE
  8
0
 66
1
 10
0.0000
 20
0.0000
 30
0.0000
 40
0.5000
 41
0.5000
 70
0
  0
VERTEX
  8
0
 10
-0.2500
 20
-0.1036
 30
0.0000
  0
VERTEX
  8
0
 10
-0.2500
 20
0.1036
 30
0.0000
  0
VERTEX
  8
0
 10
-0.1036
 20
0.2500
 30
0.0000
  0
VERTEX
  8
0
 10
0.1036
 20
0.2500
 30
0.0000
  0
VERTEX
  8
0
 10
0.2500
 20
0.1036
 30
0.0000
  0
VERTEX
  8
0
 10
0.2500
 20
-0.1036
 30
0.0000
  0
VERTEX
  8
0
 10
0.1036
 20
-0.2500
 30
0.0000
  0
VERTEX
  8
0
 10
-0.1036
 20
-0.2500
 30
0.0000
  0
VERTEX
  8
0
 10
-0.2500
 20
-0.1036
 30
0.0000
  0
VERTEX
  8
0
 10
-0.2500
 20
0.1036
 30
0.0000
  0
SEQEND
  8
0
  0
ENDBLK
  8
0
  0
BLOCK
  8
0
  2
SQUAREV
 70
64
 10
0.0000
 20
0.0000
 30
0.0000
  3
SQUAREV
  0
SOLID
  8
0
 10
-0.5000
 20
-0.5000
 30
0.0000
 11
0.5000
 21
-0.5000
 31
0.0000
 12
-0.5000
 22
0.5000
 32
0.0000
 13
0.5000
 23
0.5000
 33
0.0000
  0
ENDBLK
  8
0
  0
BLOCK
  8
0
  2
ROUNDV
 70
64
 10
0.0000
 20
0.0000
 30
0.0000
  3
ROUNDV
  0
POLYLINE
  8
0
 66
1
 10
0.0000
 20
0.0000
 30
0.0000
 40
0.5000
 41
0.5000
 70
0
  0
VERTEX
  8
0
 10
0.0000
 20
-0.2500
 30
0.0000
 42
1.0000
  0
VERTEX
  8
0
 10
0.0000
 20
0.2500
 30
0.0000
 42
1.0000
  0
VERTEX
  8
0
 10
0.0000
 20
-0.2500
 30
0.0000
  0
SEQEND
  8
0
  0
ENDBLK
  8
0
  0
BLOCK
  8
0
  2
ANNULUSV
 70
64
 10
0.0000
 20
0.0000
 30
0.0000
  3
ANNULUSV
  0
POLYLINE
  8
0
 66
1
 10
0.0000
 20
0.0000
 30
0.0000
 40
0.5000
 41
0.5000
 70
0
  0
VERTEX
  8
0
 10
0.0000
 20
-0.2500
 30
0.0000
 42
1.0000
  0
VERTEX
  8
0
 10
0.0000
 20
0.2500
 30
0.0000
 42
1.0000
  0
VERTEX
  8
0
 10
0.0000
 20
-0.2500
 30
0.0000
  0
SEQEND
  8
0
  0
ENDBLK
  8
0
  0
BLOCK
  8
0
  2
THERMALV
 70
64
 10
0.0000
 20
0.0000
 30
0.0000
  3
THERMALV
  0
POLYLINE
  8
0
 66
1
 10
0.0000
 20
0.0000
 30
0.0000
 40
0.1000
 41
0.1000
 70
0
  0
VERTEX
  8
0
 10
-0.2379
 20
0.4500
 30
0.0000
  0
VERTEX
  8
0
 10
0.2379
 20
0.4500
 30
0.0000
  0
SEQEND
  8
0
  0
POLYLINE
  8
0
 66
1
 10
0.0000
 20
0.0000
 30
0.0000
 40
0.0500
 41
0.0500
 70
0
  0
VERTEX
  8
0
 10
0.2379
 20
0.4250
 30
0.0000
 42
1.0000
  0
VERTEX
  8
0
 10
0.2379
 20
0.4750
 30
0.0000
  0
SEQEND
  8
0
  0
POLYLINE
  8
0
 66
1
 10
0.0000
 20
0.0000
 30
0.0000
 40
0.0500
 41
0.0500
 70
0
  0
VERTEX
  8
0
 10
-0.2379
 20
0.4750
 30
0.0000
 42
1.0000
  0
VERTEX
  8
0
 10
-0.2379
 20
0.4250
 30
0.0000
  0
SEQEND
  8
0
  0
POLYLINE
  8
0
 66
1
 10
0.0000
 20
0.0000
 30
0.0000
 40
0.1000
 41
0.1000
 70
0
  0
VERTEX
  8
0
 10
0.4500
 20
0.2379
 30
0.0000
  0
VERTEX
  8
0
 10
0.4500
 20
-0.2379
 30
0.0000
  0
SEQEND
  8
0
  0
POLYLINE
  8
0
 66
1
 10
0.0000
 20
0.0000
 30
0.0000
 40
0.0500
 41
0.0500
 70
0
  0
VERTEX
  8
0
 10
0.4250
 20
-0.2379
 30
0.0000
 42
1.0000
  0
VERTEX
  8
0
 10
0.4750
 20
-0.2379
 30
0.0000
  0
SEQEND
  8
0
  0
POLYLINE
  8
0
 66
1
 10
0.0000
 20
0.0000
 30
0.0000
 40
0.0500
 41
0.0500
 70
0
  0
VERTEX
  8
0
 10
0.4750
 20
0.2379
 30
0.0000
 42
1.0000
  0
VERTEX
  8
0
 10
0.4250
 20
0.2379
 30
0.0000
  0
SEQEND
  8
0
  0
POLYLINE
  8
0
 66
1
 10
0.0000
 20
0.0000
 30
0.0000
 40
0.1000
 41
0.1000
 70
0
  0
VERTEX
  8
0
 10
0.2379
 20
-0.4500
 30
0.0000
  0
VERTEX
  8
0
 10
-0.2379
 20
-0.4500
 30
0.0000
  0
SEQEND
  8
0
  0
POLYLINE
  8
0
 66
1
 10
0.0000
 20
0.0000
 30
0.0000
 40
0.0500
 41
0.0500
 70
0
  0
VERTEX
  8
0
 10
-0.2379
 20
-0.4250
 30
0.0000
 42
1.0000
  0
VERTEX
  8
0
 10
-0.2379
 20
-0.4750
 30
0.0000
  0
SEQEND
  8
0
  0
POLYLINE
  8
0
 66
1
 10
0.0000
 20
0.0000
 30
0.0000
 40
0.0500
 41
0.0500
 70
0
  0
VERTEX
  8
0
 10
0.2379
 20
-0.4750
 30
0.0000
 42
1.0000
  0
VERTEX
  8
0
 10
0.2379
 20
-0.4250
 30
0.0000
  0
SEQEND
  8
0
  0
POLYLINE
  8
0
 66
1
 10
0.0000
 20
0.0000
 30
0.0000
 40
0.1000
 41
0.1000
 70
0
  0
VERTEX
  8
0
 10
-0.4500
 20
-0.2379
 30
0.0000
  0
VERTEX
  8
0
 10
-0.4500
 20
0.2379
 30
0.0000
  0
SEQEND
  8
0
  0
POLYLINE
  8
0
 66
1
 10
0.0000
 20
0.0000
 30
0.0000
 40
0.0500
 41
0.0500
 70
0
  0
VERTEX
  8
0
 10
-0.4250
 20
0.2379
 30
0.0000
 42
1.0000
  0
VERTEX
  8
0
 10
-0.4750
 20
0.2379
 30
0.0000
  0
SEQEND
  8
0
  0
POLYLINE
  8
0
 66
1
 10
0.0000
 20
0.0000
 30
0.0000
 40
0.0500
 41
0.0500
 70
0
  0
VERTEX
  8
0
 10
-0.4750
 20
-0.2379
 30
0.0000
 42
1.0000
  0
VERTEX
  8
0
 10
-0.4250
 20
-0.2379
 30
0.0000
  0
SEQEND
  8
0
  0
ENDBLK
  8
0
  0
BLOCK
  8
0
  2
LONGP100
 70
64
 10
0.0000
 20
0.0000
 30
0.0000
  3
LONGP100
  0
POLYLINE
  8
0
 66
1
 10
0.0000
 20
0.0000
 30
0.0000
 40
1.0000
 41
1.0000
 70
0
  0
VERTEX
  8
0
 10
-0.5000
 20
0.0000
 30
0.0000
  0
VERTEX
  8
0
 10
0.5000
 20
0.0000
 30
0.0000
  0
SEQEND
  8
0
  0
POLYLINE
  8
0
 66
1
 10
0.0000
 20
0.0000
 30
0.0000
 40
0.5000
 41
0.5000
 70
0
  0
VERTEX
  8
0
 10
0.5000
 20
-0.2500
 30
0.0000
 42
1.0000
  0
VERTEX
  8
0
 10
0.5000
 20
0.2500
 30
0.0000
  0
SEQEND
  8
0
  0
POLYLINE
  8
0
 66
1
 10
0.0000
 20
0.0000
 30
0.0000
 40
0.5000
 41
0.5000
 70
0
  0
VERTEX
  8
0
 10
-0.5000
 20
0.2500
 30
0.0000
 42
1.0000
  0
VERTEX
  8
0
 10
-0.5000
 20
-0.2500
 30
0.0000
  0
SEQEND
  8
0
  0
ENDBLK
  8
0
  0
BLOCK
  8
0
  2
RECT0X0R100
 70
64
 10
0.0000
 20
0.0000
 30
0.0000
  3
RECT0X0R100
  0
POLYLINE
  8
0
 66
1
 10
0.0000
 20
0.0000
 30
0.0000
 40
0.0000
 41
0.0000
 70
1
  0
VERTEX
  8
0
 10
0.0000
 20
0.0000
 30
0.0000
  0
VERTEX
  8
0
 10
0.0000
 20
0.0000
 30
0.0000
 42
0.4142
  0
VERTEX
  8
0
 10
0.0000
 20
0.0000
 30
0.0000
  0
VERTEX
  8
0
 10
0.0000
 20
0.0000
 30
0.0000
 42
0.4142
  0
VERTEX
  8
0
 10
0.0000
 20
0.0000
 30
0.0000
  0
VERTEX
  8
0
 10
0.0000
 20
0.0000
 30
0.0000
 42
0.4142
  0
VERTEX
  8
0
 10
0.0000
 20
0.0000
 30
0.0000
  0
VERTEX
  8
0
 10
0.0000
 20
0.0000
 30
0.0000
 42
0.4142
  0
SEQEND
  8
0
  0
SOLID
  8
0
 10
0.0000
 20
0.0000
 30
0.0000
 11
0.0000
 21
0.0000
 31
0.0000
 12
0.0000
 22
0.0000
 32
0.0000
 13
0.0000
 23
0.0000
 33
0.0000
  0
ENDBLK
  8
0
  0
BLOCK
  8
0
  2
RECT328000X328000R25
 70
64
 10
0.0000
 20
0.0000
 30
0.0000
  3
RECT328000X328000R25
  0
POLYLINE
  8
0
 66
1
 10
0.0000
 20
0.0000
 30
0.0000
 40
0.2563
 41
0.2563
 70
1
  0
VERTEX
  8
0
 10
0.8969
 20
-0.7688
 30
0.0000
  0
VERTEX
  8
0
 10
0.8969
 20
0.7688
 30
0.0000
 42
0.4142
  0
VERTEX
  8
0
 10
0.7688
 20
0.8969
 30
0.0000
  0
VERTEX
  8
0
 10
-0.7688
 20
0.8969
 30
0.0000
 42
0.4142
  0
VERTEX
  8
0
 10
-0.8969
 20
0.7688
 30
0.0000
  0
VERTEX
  8
0
 10
-0.8969
 20
-0.7688
 30
0.0000
 42
0.4142
  0
VERTEX
  8
0
 10
-0.7688
 20
-0.8969
 30
0.0000
  0
VERTEX
  8
0
 10
0.7688
 20
-0.8969
 30
0.0000
 42
0.4142
  0
SEQEND
  8
0
  0
SOLID
  8
0
 10
-0.7942
 20
-0.7942
 30
0.0000
 11
0.7942
 21
-0.7942
 31
0.0000
 12
-0.7942
 22
0.7942
 32
0.0000
 13
0.7942
 23
0.7942
 33
0.0000
  0
ENDBLK
  8
0
  0
BLOCK
  8
0
  2
RECT325120X328000R25
 70
64
 10
0.0000
 20
0.0000
 30
0.0000
  3
RECT325120X328000R25
  0
POLYLINE
  8
0
 66
1
 10
0.0000
 20
0.0000
 30
0.0000
 40
0.2540
 41
0.2540
 70
1
  0
VERTEX
  8
0
 10
0.8890
 20
-0.7710
 30
0.0000
  0
VERTEX
  8
0
 10
0.8890
 20
0.7710
 30
0.0000
 42
0.4142
  0
VERTEX
  8
0
 10
0.7620
 20
0.8980
 30
0.0000
  0
VERTEX
  8
0
 10
-0.7620
 20
0.8980
 30
0.0000
 42
0.4142
  0
VERTEX
  8
0
 10
-0.8890
 20
0.7710
 30
0.0000
  0
VERTEX
  8
0
 10
-0.8890
 20
-0.7710
 30
0.0000
 42
0.4142
  0
VERTEX
  8
0
 10
-0.7620
 20
-0.8980
 30
0.0000
  0
VERTEX
  8
0
 10
0.7620
 20
-0.8980
 30
0.0000
 42
0.4142
  0
SEQEND
  8
0
  0
SOLID
  8
0
 10
-0.7874
 20
-0.7964
 30
0.0000
 11
0.7874
 21
-0.7964
 31
0.0000
 12
-0.7874
 22
0.7964
 32
0.0000
 13
0.7874
 23
0.7964
 33
0.0000
  0
ENDBLK
  8
0
  0
BLOCK
  8
0
  2
RECT304000X224000R50
 70
64
 10
0.0000
 20
0.0000
 30
0.0000
  3
RECT304000X224000R50
  0
POLYLINE
  8
0
 66
1
 10
0.0000
 20
0.0000
 30
0.0000
 40
0.3500
 41
0.3500
 70
1
  0
VERTEX
  8
0
 10
0.7750
 20
-0.3500
 30
0.0000
  0
VERTEX
  8
0
 10
0.7750
 20
0.3500
 30
0.0000
 42
0.4142
  0
VERTEX
  8
0
 10
0.6000
 20
0.5250
 30
0.0000
  0
VERTEX
  8
0
 10
-0.6000
 20
0.5250
 30
0.0000
 42
0.4142
  0
VERTEX
  8
0
 10
-0.7750
 20
0.3500
 30
0.0000
  0
VERTEX
  8
0
 10
-0.7750
 20
-0.3500
 30
0.0000
 42
0.4142
  0
VERTEX
  8
0
 10
-0.6000
 20
-0.5250
 30
0.0000
  0
VERTEX
  8
0
 10
0.6000
 20
-0.5250
 30
0.0000
 42
0.4142
  0
SEQEND
  8
0
  0
SOLID
  8
0
 10
-0.6254
 20
-0.3754
 30
0.0000
 11
0.6254
 21
-0.3754
 31
0.0000
 12
-0.6254
 22
0.3754
 32
0.0000
 13
0.6254
 23
0.3754
 33
0.0000
  0
ENDBLK
  8
0
  0
BLOCK
  8
0
  2
RECT240000X240000R25
 70
64
 10
0.0000
 20
0.0000
 30
0.0000
  3
RECT240000X240000R25
  0
POLYLINE
  8
0
 66
1
 10
0.0000
 20
0.0000
 30
0.0000
 40
0.1875
 41
0.1875
 70
1
  0
VERTEX
  8
0
 10
0.6562
 20
-0.5625
 30
0.0000
  0
VERTEX
  8
0
 10
0.6562
 20
0.5625
 30
0.0000
 42
0.4142
  0
VERTEX
  8
0
 10
0.5625
 20
0.6562
 30
0.0000
  0
VERTEX
  8
0
 10
-0.5625
 20
0.6562
 30
0.0000
 42
0.4142
  0
VERTEX
  8
0
 10
-0.6562
 20
0.5625
 30
0.0000
  0
VERTEX
  8
0
 10
-0.6562
 20
-0.5625
 30
0.0000
 42
0.4142
  0
VERTEX
  8
0
 10
-0.5625
 20
-0.6562
 30
0.0000
  0
VERTEX
  8
0
 10
0.5625
 20
-0.6562
 30
0.0000
 42
0.4142
  0
SEQEND
  8
0
  0
SOLID
  8
0
 10
-0.5879
 20
-0.5879
 30
0.0000
 11
0.5879
 21
-0.5879
 31
0.0000
 12
-0.5879
 22
0.5879
 32
0.0000
 13
0.5879
 23
0.5879
 33
0.0000
  0
ENDBLK
  8
0
  0
ENDSEC
  0
SECTION
  2
ENTITIES
  0
INSERT
  8
31
  2
RECT
 10
40.3109
 20
62.5046
 30
0.0000
 41
1.0160
 42
0.9652
 43
1.0000
 50
350.0000
  0
INSERT
  8
31
  2
RECT
 10
41.9851
 20
62.2094
 30
0.0000
 41
1.0160
 42
0.9652
 43
1.0000
 50
350.0000
  0
INSERT
  8
31
  2
RECT
 10
46.1118
 20
57.2752
 30
0.0000
 41
0.9906
 42
3.5560
 43
1.0000
 50
352.0000
  0
INSERT
  8
31
  2
RECT
 10
48.0989
 20
56.9959
 30
0.0000
 41
0.9906
 42
3.5560
 43
1.0000
 50
352.0000
  0
INSERT
  8
31
  2
RECT
 10
44.4668
 20
62.7916
 30
0.0000
 41
3.4000
 42
1.6000
 43
1.0000
 50
82.0000
  0
INSERT
  8
31
  2
RECT
 10
51.2007
 20
61.8452
 30
0.0000
 41
3.4000
 42
1.6000
 43
1.0000
 50
82.0000
  0
INSERT
  8
31
  2
RECT
 10
29.2006
 20
5.5372
 30
0.0000
 41
1.0540
 42
1.3000
 43
1.0000
 50
0.0000
  0
INSERT
  8
31
  2
RECT
 10
30.9466
 20
5.5372
 30
0.0000
 41
1.0540
 42
1.3000
 43
1.0000
 50
0.0000
  0
INSERT
  8
31
  2
RECT
 10
6.9850
 20
31.1498
 30
0.0000
 41
1.0540
 42
1.3000
 43
1.0000
 50
270.0000
  0
INSERT
  8
31
  2
RECT
 10
6.9850
 20
29.4038
 30
0.0000
 41
1.0540
 42
1.3000
 43
1.0000
 50
270.0000
  0
INSERT
  8
31
  2
RECT
 10
53.4924
 20
29.0482
 30
0.0000
 41
1.0540
 42
1.3000
 43
1.0000
 50
90.0000
  0
INSERT
  8
31
  2
RECT
 10
53.4924
 20
30.7942
 30
0.0000
 41
1.0540
 42
1.3000
 43
1.0000
 50
90.0000
  0
INSERT
  8
31
  2
RECT
 10
12.7939
 20
13.5205
 30
0.0000
 41
1.0540
 42
1.3000
 43
1.0000
 50
315.0000
  0
INSERT
  8
31
  2
RECT
 10
14.0285
 20
12.2859
 30
0.0000
 41
1.0540
 42
1.3000
 43
1.0000
 50
315.0000
  0
INSERT
  8
31
  2
RECT
 10
46.4489
 20
12.0065
 30
0.0000
 41
1.0540
 42
1.3000
 43
1.0000
 50
45.0000
  0
INSERT
  8
31
  2
RECT
 10
47.6835
 20
13.2411
 30
0.0000
 41
1.0540
 42
1.3000
 43
1.0000
 50
45.0000
  0
INSERT
  8
31
  2
RECT
 10
14.2063
 20
45.9563
 30
0.0000
 41
1.0540
 42
1.3000
 43
1.0000
 50
225.0000
  0
INSERT
  8
31
  2
RECT
 10
12.9717
 20
44.7217
 30
0.0000
 41
1.0540
 42
1.3000
 43
1.0000
 50
225.0000
  0
INSERT
  8
31
  2
RECT
 10
47.0993
 20
45.2297
 30
0.0000
 41
1.0540
 42
1.3000
 43
1.0000
 50
135.0000
  0
INSERT
  8
31
  2
RECT
 10
45.8647
 20
46.4643
 30
0.0000
 41
1.0540
 42
1.3000
 43
1.0000
 50
135.0000
  0
INSERT
  8
31
  2
RECT
 10
25.1003
 20
51.9149
 30
0.0000
 41
1.0540
 42
1.3000
 43
1.0000
 50
195.0000
  0
INSERT
  8
31
  2
RECT
 10
23.4137
 20
51.4631
 30
0.0000
 41
1.0540
 42
1.3000
 43
1.0000
 50
195.0000
  0
INSERT
  8
31
  2
RECT
 10
31.0990
 20
52.3240
 30
0.0000
 41
1.0540
 42
1.3000
 43
1.0000
 50
180.0000
  0
INSERT
  8
31
  2
RECT
 10
29.3530
 20
52.3240
 30
0.0000
 41
1.0540
 42
1.3000
 43
1.0000
 50
180.0000
  0
INSERT
  8
31
  2
RECT
 10
19.1710
 20
49.7125
 30
0.0000
 41
1.0540
 42
1.3000
 43
1.0000
 50
210.0000
  0
INSERT
  8
31
  2
RECT
 10
17.6590
 20
48.8395
 30
0.0000
 41
1.0540
 42
1.3000
 43
1.0000
 50
210.0000
  0
INSERT
  8
31
  2
RECT
 10
10.4695
 20
41.6500
 30
0.0000
 41
1.0540
 42
1.3000
 43
1.0000
 50
240.0000
  0
INSERT
  8
31
  2
RECT
 10
9.5965
 20
40.1380
 30
0.0000
 41
1.0540
 42
1.3000
 43
1.0000
 50
240.0000
  0
INSERT
  8
31
  2
RECT
 10
7.8459
 20
36.6573
 30
0.0000
 41
1.0540
 42
1.3000
 43
1.0000
 50
255.0000
  0
INSERT
  8
31
  2
RECT
 10
7.3941
 20
34.9707
 30
0.0000
 41
1.0540
 42
1.3000
 43
1.0000
 50
255.0000
  0
INSERT
  8
31
  2
RECT
 10
7.2671
 20
25.4813
 30
0.0000
 41
1.0540
 42
1.3000
 43
1.0000
 50
285.0000
  0
INSERT
  8
31
  2
RECT
 10
7.7189
 20
23.7947
 30
0.0000
 41
1.0540
 42
1.3000
 43
1.0000
 50
285.0000
  0
INSERT
  8
31
  2
RECT
 10
8.9615
 20
19.2980
 30
0.0000
 41
1.0540
 42
1.3000
 43
1.0000
 50
300.0000
  0
INSERT
  8
31
  2
RECT
 10
9.8345
 20
17.7860
 30
0.0000
 41
1.0540
 42
1.3000
 43
1.0000
 50
300.0000
  0
INSERT
  8
31
  2
RECT
 10
17.1510
 20
9.8345
 30
0.0000
 41
1.0540
 42
1.3000
 43
1.0000
 50
330.0000
  0
INSERT
  8
31
  2
RECT
 10
18.6630
 20
8.9615
 30
0.0000
 41
1.0540
 42
1.3000
 43
1.0000
 50
330.0000
  0
INSERT
  8
31
  2
RECT
 10
22.8016
 20
7.1566
 30
0.0000
 41
1.0540
 42
1.3000
 43
1.0000
 50
340.0000
  0
INSERT
  8
31
  2
RECT
 10
24.4424
 20
6.5594
 30
0.0000
 41
1.0540
 42
1.3000
 43
1.0000
 50
340.0000
  0
INSERT
  8
31
  2
RECT
 10
35.2247
 20
6.2511
 30
0.0000
 41
1.0540
 42
1.3000
 43
1.0000
 50
15.0000
  0
INSERT
  8
31
  2
RECT
 10
36.9113
 20
6.7029
 30
0.0000
 41
1.0540
 42
1.3000
 43
1.0000
 50
15.0000
  0
INSERT
  8
31
  2
RECT
 10
50.1095
 20
16.6430
 30
0.0000
 41
1.0540
 42
1.3000
 43
1.0000
 50
60.0000
  0
INSERT
  8
31
  2
RECT
 10
50.9825
 20
18.1550
 30
0.0000
 41
1.0540
 42
1.3000
 43
1.0000
 50
60.0000
  0
INSERT
  8
31
  2
RECT
 10
52.7331
 20
23.2867
 30
0.0000
 41
1.0540
 42
1.3000
 43
1.0000
 50
75.0000
  0
INSERT
  8
31
  2
RECT
 10
53.1849
 20
24.9733
 30
0.0000
 41
1.0540
 42
1.3000
 43
1.0000
 50
75.0000
  0
INSERT
  8
31
  2
RECT
 10
41.1540
 20
7.9455
 30
0.0000
 41
1.0540
 42
1.3000
 43
1.0000
 50
30.0000
  0
INSERT
  8
31
  2
RECT
 10
42.6660
 20
8.8185
 30
0.0000
 41
1.0540
 42
1.3000
 43
1.0000
 50
30.0000
  0
INSERT
  8
31
  2
RECT
 10
50.9825
 20
40.5190
 30
0.0000
 41
1.0540
 42
1.3000
 43
1.0000
 50
120.0000
  0
INSERT
  8
31
  2
RECT
 10
50.1095
 20
42.0310
 30
0.0000
 41
1.0540
 42
1.3000
 43
1.0000
 50
120.0000
  0
INSERT
  8
31
  2
RECT
 10
53.0579
 20
34.8437
 30
0.0000
 41
1.0540
 42
1.3000
 43
1.0000
 50
105.0000
  0
INSERT
  8
31
  2
RECT
 10
52.6061
 20
36.5303
 30
0.0000
 41
1.0540
 42
1.3000
 43
1.0000
 50
105.0000
  0
INSERT
  8
31
  2
RECT
 10
42.9200
 20
48.7125
 30
0.0000
 41
1.0540
 42
1.3000
 43
1.0000
 50
150.0000
  0
INSERT
  8
31
  2
RECT
 10
41.4080
 20
49.5855
 30
0.0000
 41
1.0540
 42
1.3000
 43
1.0000
 50
150.0000
  0
INSERT
  8
31
  2
RECT
 10
37.1653
 20
51.0821
 30
0.0000
 41
1.0540
 42
1.3000
 43
1.0000
 50
165.0000
  0
INSERT
  8
31
  2
RECT
 10
35.4787
 20
51.5339
 30
0.0000
 41
1.0540
 42
1.3000
 43
1.0000
 50
165.0000
  0
INSERT
  8
31
  2
RECT
 10
3.1195
 20
45.2180
 30
0.0000
 41
1.0540
 42
1.3000
 43
1.0000
 50
60.0000
  0
INSERT
  8
31
  2
RECT
 10
3.9925
 20
46.7300
 30
0.0000
 41
1.0540
 42
1.3000
 43
1.0000
 50
60.0000
  0
INSERT
  8
31
  2
RECT
 10
36.1070
 20
62.2300
 30
0.0000
 41
1.0160
 42
0.9652
 43
1.0000
 50
0.0000
  0
INSERT
  8
31
  2
RECT
 10
37.8070
 20
62.2300
 30
0.0000
 41
1.0160
 42
0.9652
 43
1.0000
 50
0.0000
  0
INSERT
  8
31
  2
RECT
 10
40.5881
 20
57.1294
 30
0.0000
 41
1.0160
 42
0.9652
 43
1.0000
 50
170.0000
  0
INSERT
  8
31
  2
RECT
 10
38.9139
 20
57.4246
 30
0.0000
 41
1.0160
 42
0.9652
 43
1.0000
 50
170.0000
  0
INSERT
  8
31
  2
RECT
 10
6.5863
 20
58.7833
 30
0.0000
 41
1.0540
 42
1.3000
 43
1.0000
 50
225.0000
  0
INSERT
  8
31
  2
RECT
 10
5.3517
 20
57.5487
 30
0.0000
 41
1.0540
 42
1.3000
 43
1.0000
 50
225.0000
  0
INSERT
  8
31
  2
RECT
 10
9.9133
 20
54.1821
 30
0.0000
 41
1.0540
 42
1.3000
 43
1.0000
 50
305.0000
  0
INSERT
  8
31
  2
RECT
 10
10.9147
 20
52.7519
 30
0.0000
 41
1.0540
 42
1.3000
 43
1.0000
 50
305.0000
  0
INSERT
  8
31
  2
RECT
 10
5.4670
 20
8.4535
 30
0.0000
 41
1.0540
 42
1.3000
 43
1.0000
 50
30.0000
  0
INSERT
  8
31
  2
RECT
 10
6.9790
 20
9.3265
 30
0.0000
 41
1.0540
 42
1.3000
 43
1.0000
 50
30.0000
  0
INSERT
  8
31
  2
RECT
 10
14.8530
 20
2.6115
 30
0.0000
 41
1.0540
 42
1.3000
 43
1.0000
 50
150.0000
  0
INSERT
  8
31
  2
RECT
 10
13.3410
 20
3.4845
 30
0.0000
 41
1.0540
 42
1.3000
 43
1.0000
 50
150.0000
  0
INSERT
  8
31
  2
RECT
 10
53.1953
 20
6.1137
 30
0.0000
 41
1.0540
 42
1.3000
 43
1.0000
 50
135.0000
  0
INSERT
  8
31
  2
RECT
 10
51.9607
 20
7.3483
 30
0.0000
 41
1.0540
 42
1.3000
 43
1.0000
 50
135.0000
  0
INSERT
  8
31
  2
RECT
 10
57.5756
 20
15.6794
 30
0.0000
 41
1.0540
 42
1.3000
 43
1.0000
 50
250.0000
  0
INSERT
  8
31
  2
RECT
 10
56.9784
 20
14.0386
 30
0.0000
 41
1.0540
 42
1.3000
 43
1.0000
 50
250.0000
  0
INSERT
  8
31
  2
RECT
 10
50.8338
 20
53.6472
 30
0.0000
 41
1.0540
 42
1.3000
 43
1.0000
 50
220.0000
  0
INSERT
  8
31
  2
RECT
 10
49.4962
 20
52.5248
 30
0.0000
 41
1.0540
 42
1.3000
 43
1.0000
 50
220.0000
  0
INSERT
  8
31
  2
RECT
 10
56.4218
 20
48.4402
 30
0.0000
 41
1.0540
 42
1.3000
 43
1.0000
 50
220.0000
  0
INSERT
  8
31
  2
RECT
 10
55.0842
 20
47.3178
 30
0.0000
 41
1.0540
 42
1.3000
 43
1.0000
 50
220.0000
  0
INSERT
  8
31
  2
RECT
 10
10.5173
 20
46.5853
 30
0.0000
 41
2.5000
 42
2.0000
 43
1.0000
 50
135.0000
  0
INSERT
  8
31
  2
RECT
 10
12.8507
 20
48.9187
 30
0.0000
 41
2.5000
 42
2.0000
 43
1.0000
 50
315.0000
  0
INSERT
  8
31
  2
RECT
 10
47.6013
 20
49.0457
 30
0.0000
 41
2.5000
 42
2.0000
 43
1.0000
 50
45.0000
  0
INSERT
  8
31
  2
RECT
 10
49.9347
 20
46.7123
 30
0.0000
 41
2.5000
 42
2.0000
 43
1.0000
 50
225.0000
  0
INSERT
  8
31
  2
RECT
 10
31.5712
 20
3.2766
 30
0.0000
 41
2.5000
 42
2.0000
 43
1.0000
 50
270.0000
  0
INSERT
  8
31
  2
RECT
 10
28.2712
 20
3.2766
 30
0.0000
 41
2.5000
 42
2.0000
 43
1.0000
 50
90.0000
  0
INSERT
  8
31
  2
RECT
 10
3.8608
 20
28.4998
 30
0.0000
 41
2.5000
 42
2.0000
 43
1.0000
 50
180.0000
  0
INSERT
  8
31
  2
RECT
 10
3.8608
 20
31.7998
 30
0.0000
 41
2.5000
 42
2.0000
 43
1.0000
 50
0.0000
  0
INSERT
  8
31
  2
RECT
 10
56.4642
 20
31.6220
 30
0.0000
 41
2.5000
 42
2.0000
 43
1.0000
 50
0.0000
  0
INSERT
  8
31
  2
RECT
 10
56.4642
 20
28.3220
 30
0.0000
 41
2.5000
 42
2.0000
 43
1.0000
 50
180.0000
  0
INSERT
  8
31
  2
RECT
 10
12.2665
 20
9.8061
 30
0.0000
 41
2.5000
 42
2.0000
 43
1.0000
 50
225.0000
  0
INSERT
  8
31
  2
RECT
 10
9.9331
 20
12.1395
 30
0.0000
 41
2.5000
 42
2.0000
 43
1.0000
 50
45.0000
  0
INSERT
  8
31
  2
RECT
 10
50.2649
 20
11.9871
 30
0.0000
 41
2.5000
 42
2.0000
 43
1.0000
 50
315.0000
  0
INSERT
  8
31
  2
RECT
 10
47.9315
 20
9.6537
 30
0.0000
 41
2.5000
 42
2.0000
 43
1.0000
 50
135.0000
  0
INSERT
  8
31
  2
RECT
 10
22.0282
 20
53.9289
 30
0.0000
 41
2.5000
 42
2.0000
 43
1.0000
 50
105.0000
  0
INSERT
  8
31
  2
RECT
 10
25.2158
 20
54.7831
 30
0.0000
 41
2.5000
 42
2.0000
 43
1.0000
 50
285.0000
  0
INSERT
  8
31
  2
RECT
 10
28.7030
 20
54.9910
 30
0.0000
 41
2.5000
 42
2.0000
 43
1.0000
 50
90.0000
  0
INSERT
  8
31
  2
RECT
 10
32.0030
 20
54.9910
 30
0.0000
 41
2.5000
 42
2.0000
 43
1.0000
 50
270.0000
  0
INSERT
  8
31
  2
RECT
 10
15.7161
 20
50.9910
 30
0.0000
 41
2.5000
 42
2.0000
 43
1.0000
 50
120.0000
  0
INSERT
  8
31
  2
RECT
 10
18.5739
 20
52.6410
 30
0.0000
 41
2.5000
 42
2.0000
 43
1.0000
 50
300.0000
  0
INSERT
  8
31
  2
RECT
 10
6.5410
 20
41.3701
 30
0.0000
 41
2.5000
 42
2.0000
 43
1.0000
 50
150.0000
  0
INSERT
  8
31
  2
RECT
 10
8.1910
 20
44.2279
 30
0.0000
 41
2.5000
 42
2.0000
 43
1.0000
 50
330.0000
  0
INSERT
  8
31
  2
RECT
 10
4.2719
 20
35.1092
 30
0.0000
 41
2.5000
 42
2.0000
 43
1.0000
 50
165.0000
  0
INSERT
  8
31
  2
RECT
 10
5.1261
 20
38.2968
 30
0.0000
 41
2.5000
 42
2.0000
 43
1.0000
 50
345.0000
  0
INSERT
  8
31
  2
RECT
 10
5.1261
 20
21.9012
 30
0.0000
 41
2.5000
 42
2.0000
 43
1.0000
 50
195.0000
  0
INSERT
  8
31
  2
RECT
 10
4.2719
 20
25.0888
 30
0.0000
 41
2.5000
 42
2.0000
 43
1.0000
 50
15.0000
  0
INSERT
  8
31
  2
RECT
 10
7.9370
 20
15.3351
 30
0.0000
 41
2.5000
 42
2.0000
 43
1.0000
 50
210.0000
  0
INSERT
  8
31
  2
RECT
 10
6.2870
 20
18.1929
 30
0.0000
 41
2.5000
 42
2.0000
 43
1.0000
 50
30.0000
  0
INSERT
  8
31
  2
RECT
 10
17.6849
 20
6.0330
 30
0.0000
 41
2.5000
 42
2.0000
 43
1.0000
 50
240.0000
  0
INSERT
  8
31
  2
RECT
 10
14.8271
 20
7.6830
 30
0.0000
 41
2.5000
 42
2.0000
 43
1.0000
 50
60.0000
  0
INSERT
  8
31
  2
RECT
 10
24.3268
 20
3.7639
 30
0.0000
 41
2.5000
 42
2.0000
 43
1.0000
 50
255.0000
  0
INSERT
  8
31
  2
RECT
 10
21.1392
 20
4.6181
 30
0.0000
 41
2.5000
 42
2.0000
 43
1.0000
 50
75.0000
  0
INSERT
  8
31
  2
RECT
 10
38.4238
 20
4.3641
 30
0.0000
 41
2.5000
 42
2.0000
 43
1.0000
 50
285.0000
  0
INSERT
  8
31
  2
RECT
 10
35.2362
 20
3.5099
 30
0.0000
 41
2.5000
 42
2.0000
 43
1.0000
 50
105.0000
  0
INSERT
  8
31
  2
RECT
 10
54.0380
 20
17.9389
 30
0.0000
 41
2.5000
 42
2.0000
 43
1.0000
 50
330.0000
  0
INSERT
  8
31
  2
RECT
 10
52.3880
 20
15.0811
 30
0.0000
 41
2.5000
 42
2.0000
 43
1.0000
 50
150.0000
  0
INSERT
  8
31
  2
RECT
 10
56.0531
 20
24.5808
 30
0.0000
 41
2.5000
 42
2.0000
 43
1.0000
 50
345.0000
  0
INSERT
  8
31
  2
RECT
 10
55.1989
 20
21.3932
 30
0.0000
 41
2.5000
 42
2.0000
 43
1.0000
 50
165.0000
  0
INSERT
  8
31
  2
RECT
 10
44.6089
 20
7.1750
 30
0.0000
 41
2.5000
 42
2.0000
 43
1.0000
 50
300.0000
  0
INSERT
  8
31
  2
RECT
 10
41.7511
 20
5.5250
 30
0.0000
 41
2.5000
 42
2.0000
 43
1.0000
 50
120.0000
  0
INSERT
  8
31
  2
RECT
 10
52.1340
 20
44.1009
 30
0.0000
 41
2.5000
 42
2.0000
 43
1.0000
 50
30.0000
  0
INSERT
  8
31
  2
RECT
 10
53.7840
 20
41.2431
 30
0.0000
 41
2.5000
 42
2.0000
 43
1.0000
 50
210.0000
  0
INSERT
  8
31
  2
RECT
 10
55.1989
 20
38.0428
 30
0.0000
 41
2.5000
 42
2.0000
 43
1.0000
 50
15.0000
  0
INSERT
  8
31
  2
RECT
 10
56.0531
 20
34.8552
 30
0.0000
 41
2.5000
 42
2.0000
 43
1.0000
 50
195.0000
  0
INSERT
  8
31
  2
RECT
 10
42.1321
 20
52.6410
 30
0.0000
 41
2.5000
 42
2.0000
 43
1.0000
 50
60.0000
  0
INSERT
  8
31
  2
RECT
 10
44.9899
 20
50.9910
 30
0.0000
 41
2.5000
 42
2.0000
 43
1.0000
 50
240.0000
  0
INSERT
  8
31
  2
RECT
 10
35.7442
 20
54.5291
 30
0.0000
 41
2.5000
 42
2.0000
 43
1.0000
 50
75.0000
  0
INSERT
  8
31
  2
RECT
 10
38.9318
 20
53.6749
 30
0.0000
 41
2.5000
 42
2.0000
 43
1.0000
 50
255.0000
  0
INSERT
  8
31
  2
RECT
 10
5.8183
 20
48.9983
 30
0.0000
 41
2.5000
 42
2.0000
 43
1.0000
 50
135.0000
  0
INSERT
  8
31
  2
RECT
 10
8.1517
 20
51.3317
 30
0.0000
 41
2.5000
 42
2.0000
 43
1.0000
 50
315.0000
  0
INSERT
  8
31
  2
RECT
 10
29.0530
 20
61.4342
 30
0.0000
 41
1.5000
 42
0.4000
 43
1.0000
 50
270.0000
  0
INSERT
  8
31
  2
RECT328000X328000R25
 10
33.8530
 20
64.1350
 30
0.0000
 41
1.0000
 42
1.0000
 43
1.0000
 50
180.0000
  0
INSERT
  8
31
  2
RECT325120X328000R25
 10
26.8530
 20
64.1350
 30
0.0000
 41
1.0000
 42
1.0000
 43
1.0000
 50
180.0000
  0
INSERT
  8
31
  2
RECT304000X224000R50
 10
33.2530
 20
61.4350
 30
0.0000
 41
1.0000
 42
1.0000
 43
1.0000
 50
180.0000
  0
INSERT
  8
31
  2
RECT304000X224000R50
 10
27.4530
 20
61.4350
 30
0.0000
 41
1.0000
 42
1.0000
 43
1.0000
 50
180.0000
  0
INSERT
  8
31
  2
RECT240000X240000R25
 10
29.3530
 20
64.1350
 30
0.0000
 41
1.0000
 42
1.0000
 43
1.0000
 50
180.0000
  0
INSERT
  8
31
  2
RECT240000X240000R25
 10
31.3530
 20
64.1350
 30
0.0000
 41
1.0000
 42
1.0000
 43
1.0000
 50
180.0000
  0
INSERT
  8
31
  2
RECT
 10
31.6530
 20
61.4342
 30
0.0000
 41
1.5000
 42
0.4000
 43
1.0000
 50
270.0000
  0
INSERT
  8
31
  2
RECT
 10
58.0596
 20
49.9629
 30
0.0000
 41
0.8636
 42
0.9652
 43
1.0000
 50
100.0000
  0
INSERT
  8
31
  2
RECT
 10
57.7644
 20
51.6371
 30
0.0000
 41
0.8636
 42
0.9652
 43
1.0000
 50
100.0000
  0
INSERT
  8
31
  2
RECT
 10
6.9613
 20
55.0943
 30
0.0000
 41
2.5000
 42
2.0000
 43
1.0000
 50
135.0000
  0
INSERT
  8
31
  2
RECT
 10
9.2947
 20
57.4277
 30
0.0000
 41
2.5000
 42
2.0000
 43
1.0000
 50
315.0000
  0
INSERT
  8
31
  2
RECT
 10
12.2871
 20
54.6740
 30
0.0000
 41
2.5000
 42
2.0000
 43
1.0000
 50
120.0000
  0
INSERT
  8
31
  2
RECT
 10
15.1449
 20
56.3240
 30
0.0000
 41
2.5000
 42
2.0000
 43
1.0000
 50
300.0000
  0
INSERT
  8
31
  2
RECT
 10
5.2700
 20
10.7631
 30
0.0000
 41
2.5000
 42
2.0000
 43
1.0000
 50
210.0000
  0
INSERT
  8
31
  2
RECT
 10
3.6200
 20
13.6209
 30
0.0000
 41
2.5000
 42
2.0000
 43
1.0000
 50
30.0000
  0
INSERT
  8
31
  2
RECT
 10
10.7890
 20
4.6544
 30
0.0000
 41
2.5000
 42
2.0000
 43
1.0000
 50
230.0000
  0
INSERT
  8
31
  2
RECT
 10
8.2610
 20
6.7756
 30
0.0000
 41
2.5000
 42
2.0000
 43
1.0000
 50
50.0000
  0
INSERT
  8
31
  2
RECT
 10
50.4509
 20
5.2700
 30
0.0000
 41
2.5000
 42
2.0000
 43
1.0000
 50
300.0000
  0
INSERT
  8
31
  2
RECT
 10
47.5931
 20
3.6200
 30
0.0000
 41
2.5000
 42
2.0000
 43
1.0000
 50
120.0000
  0
INSERT
  8
31
  2
RECT
 10
55.5620
 20
11.5889
 30
0.0000
 41
2.5000
 42
2.0000
 43
1.0000
 50
330.0000
  0
INSERT
  8
31
  2
RECT
 10
53.9120
 20
8.7311
 30
0.0000
 41
2.5000
 42
2.0000
 43
1.0000
 50
150.0000
  0
INSERT
  8
31
  2
RECT
 10
51.6653
 20
51.5857
 30
0.0000
 41
2.5000
 42
2.0000
 43
1.0000
 50
45.0000
  0
INSERT
  8
31
  2
RECT
 10
53.9987
 20
49.2523
 30
0.0000
 41
2.5000
 42
2.0000
 43
1.0000
 50
225.0000
  0
INSERT
  8
31
  2
RECT
 10
56.1987
 20
45.4374
 30
0.0000
 41
2.5000
 42
2.0000
 43
1.0000
 50
25.0000
  0
INSERT
  8
31
  2
RECT
 10
57.5933
 20
42.4466
 30
0.0000
 41
2.5000
 42
2.0000
 43
1.0000
 50
205.0000
  0
INSERT
  8
31
  2
RECT
 10
41.3744
 20
58.5287
 30
0.0000
 41
0.5500
 42
1.2000
 43
1.0000
 50
80.0000
  0
INSERT
  8
31
  2
RECT
 10
41.5393
 20
59.4642
 30
0.0000
 41
0.5500
 42
1.2000
 43
1.0000
 50
80.0000
  0
INSERT
  8
31
  2
RECT
 10
41.7043
 20
60.3998
 30
0.0000
 41
0.5500
 42
1.2000
 43
1.0000
 50
80.0000
  0
INSERT
  8
31
  2
RECT
 10
39.1436
 20
60.8513
 30
0.0000
 41
0.5500
 42
1.2000
 43
1.0000
 50
80.0000
  0
INSERT
  8
31
  2
RECT
 10
38.8137
 20
58.9802
 30
0.0000
 41
0.5500
 42
1.2000
 43
1.0000
 50
80.0000
  0
ENDSEC
  0
EOF
